<?xml version="1.0" encoding="UTF-8" standalone="no"?>
<svg width="275px" height="25px" viewBox="0 0 275 25" version="1.1" xmlns="http://www.w3.org/2000/svg" xmlns:xlink="http://www.w3.org/1999/xlink">
    <!-- Generator: Sketch 39 (31667) - http://www.bohemiancoding.com/sketch -->
    <title>Group</title>
    <desc>Created with Sketch.</desc>
    <defs></defs>
    <g id="Page-1" stroke="none" stroke-width="1" fill="none" fill-rule="evenodd">
        <g id="Group" fill="#1656D4">
            <path d="M14.845,0.745 L0.39,0.745 L0.39,25 L6.13,25 L6.13,15.375 L13.2,15.375 L13.2,11.28 L6.13,11.28 L6.13,4.84 L14.25,4.84 L14.845,0.745 Z M23.175,0.745 L17.435,0.745 L17.435,25 L32.03,25 L32.625,20.45 L23.175,20.45 L23.175,0.745 Z M50.265,0.745 L35.39,0.745 L35.39,25 L50.265,25 L50.265,20.87 L41.13,20.87 L41.13,14.675 L48.585,14.675 L48.585,10.65 L41.13,10.65 L41.13,4.84 L49.67,4.84 L50.265,0.745 Z M65,11.91 L71.405,0.745 L65.315,0.745 L61.64,8.515 L58.14,0.745 L51.91,0.745 L58.175,12.12 L51.385,25 L57.475,25 L61.57,15.76 L65.735,25 L72,25 L65,11.91 Z M79.875,0.745 L74.135,0.745 L74.135,25 L79.875,25 L79.875,0.745 Z M97.305,12.155 C99.545,11.63 101.75,10.02 101.75,6.94 C101.75,2.39 97.76,0.745 91.25,0.745 L84.39,0.745 L84.39,25 L92.195,25 C98.285,25 102.765,23.46 102.765,17.93 C102.765,14.01 100,12.68 97.305,12.155 L97.305,12.155 Z M91.81,4.805 C94.575,4.805 95.905,5.47 95.905,7.5 C95.905,9.53 94.645,10.44 92.265,10.44 L90.13,10.44 L90.13,4.805 L91.81,4.805 Z M92.23,20.835 L90.13,20.835 L90.13,14.255 L92.65,14.255 C95.135,14.255 96.85,15.165 96.85,17.615 C96.85,20.275 94.925,20.835 92.23,20.835 L92.23,20.835 Z M120.86,0.745 L105.985,0.745 L105.985,25 L120.86,25 L120.86,20.87 L111.725,20.87 L111.725,14.675 L119.18,14.675 L119.18,10.65 L111.725,10.65 L111.725,4.84 L120.265,4.84 L120.86,0.745 Z M130.135,0.745 L124.395,0.745 L124.395,25 L138.99,25 L139.585,20.45 L130.135,20.45 L130.135,0.745 Z" id="FLEXIBEL"></path>
            <path d="M175.635,1.025 L173.64,1.025 L169.055,23.075 L163.7,1.025 L161.355,1.025 L156.105,23.075 L151.555,1.025 L149.42,1.025 L154.705,25 L157.26,25 L162.51,3.37 L167.76,25 L170.385,25 L175.635,1.025 Z M192.785,1.025 L180.605,1.025 L180.605,25 L193.03,25 L193.03,23.25 L182.705,23.25 L182.705,13.45 L191.21,13.45 L191.21,11.7 L182.705,11.7 L182.705,2.775 L192.54,2.775 L192.785,1.025 Z M211.58,25 L214.1,25 L207.52,13.87 C210.915,12.995 212.875,11.105 212.875,7.535 C212.875,3.3 210.11,1.025 204.335,1.025 L198.525,1.025 L198.525,25 L200.625,25 L200.625,14.255 L205.42,14.255 L211.58,25 Z M200.625,12.54 L200.625,2.74 L204.265,2.74 C208.85,2.74 210.635,4.35 210.635,7.535 C210.635,11.035 208.43,12.54 204.615,12.54 L200.625,12.54 Z M223.935,1.025 L219.175,1.025 L219.175,25 L224.32,25 C229.255,25 235.1,22.76 235.1,12.82 C235.1,2.95 229.5,1.025 223.935,1.025 L223.935,1.025 Z M224.215,2.775 C228.415,2.775 232.895,4.035 232.895,12.82 C232.895,21.43 228.59,23.25 224.46,23.25 L221.275,23.25 L221.275,2.775 L224.215,2.775 Z M253.475,1.025 L241.295,1.025 L241.295,25 L253.72,25 L253.72,23.25 L243.395,23.25 L243.395,13.45 L251.9,13.45 L251.9,11.7 L243.395,11.7 L243.395,2.775 L253.23,2.775 L253.475,1.025 Z M275,1.025 L273.005,1.025 L273.005,15.585 C273.005,18.7 273.215,21.675 273.285,22.69 L261.91,1.025 L259.215,1.025 L259.215,25 L261.21,25 L261.21,11.595 C261.21,7.29 261.035,4.98 260.93,3.335 L272.235,25 L275,25 L275,1.025 Z" id="WERDEN"></path>
        </g>
    </g>
</svg>